<?xml version="1.0" encoding="utf-8"?>
<!-- Generator: Adobe Illustrator 21.1.0, SVG Export Plug-In . SVG Version: 6.00 Build 0)  -->
<svg version="1.1" id="Ebene_1" xmlns="http://www.w3.org/2000/svg" xmlns:xlink="http://www.w3.org/1999/xlink" x="0px" y="0px"
	 viewBox="0 0 28.3 28.3" style="enable-background:new 0 0 28.3 28.3;" xml:space="preserve">
<style type="text/css">
	.st0{fill:#FFFFFF;}
	.st1{fill:#36A9E1;}
	.st2{fill:#E63326;}
	.st3{fill:#FBBA19;}
	.st4{fill:#83BB26;}
	.st5{fill:#614797;}
</style>
<polygon class="st0" points="25,8 14,1.7 3.1,8 3.1,20.7 14.1,27 25,20.6 "/>
<polygon class="st4" points="25,8 14,1.7 3.1,8 3.1,8.1 14.1,14.4 25,8 "/>
<path d="M25.6,8.2C25.6,8.2,25.6,8.2,25.6,8.2c0-0.2,0-0.3-0.1-0.5l0,0c0,0,0,0,0,0c0,0,0,0,0,0c0,0,0,0,0,0c0,0,0,0,0,0
	c0,0,0,0,0,0c0,0,0,0,0,0c0,0,0,0-0.1,0L14.3,1.2c-0.2-0.1-0.4-0.1-0.6,0L2.8,7.5c0,0-0.1,0-0.1,0.1c0,0,0,0,0,0c0,0-0.1,0-0.1,0.1
	c0,0,0,0,0,0c0,0,0,0.1-0.1,0.1c0,0,0,0,0,0c0,0,0,0.1,0,0.1c0,0,0,0,0,0c0,0,0,0,0,0c0,0,0,0.1,0,0.1c0,0,0,0,0,0c0,0,0,0,0,0
	l0,12.6c0,0.2,0.1,0.4,0.3,0.5l10.9,6.3c0,0,0,0,0.1,0c0,0,0,0,0,0c0,0,0.1,0,0.1,0c0,0,0,0,0,0c0,0,0.1,0,0.1,0s0.1,0,0.1,0
	c0,0,0,0,0,0c0,0,0.1,0,0.1,0c0,0,0,0,0,0c0,0,0,0,0.1,0l10.9-6.3c0.2-0.1,0.3-0.3,0.3-0.5L25.6,8.2z M4.3,8L14,2.4L23.8,8l-9.8,5.7
	L4.3,8z M3.7,9.1l9.8,5.6v11.2l-9.8-5.6L3.7,9.1z M14.7,25.9V14.7l9.7-5.6l0,11.2L14.7,25.9z"/>
</svg>
