<?xml version="1.0" encoding="UTF-8" standalone="no"?>
<!-- Generator: Adobe Illustrator 21.1.0, SVG Export Plug-In . SVG Version: 6.00 Build 0)  -->

<svg
   xmlns:dc="http://purl.org/dc/elements/1.1/"
   xmlns:cc="http://creativecommons.org/ns#"
   xmlns:rdf="http://www.w3.org/1999/02/22-rdf-syntax-ns#"
   xmlns:svg="http://www.w3.org/2000/svg"
   xmlns="http://www.w3.org/2000/svg"
   xmlns:sodipodi="http://sodipodi.sourceforge.net/DTD/sodipodi-0.dtd"
   xmlns:inkscape="http://www.inkscape.org/namespaces/inkscape"
   version="1.1"
   id="Ebene_1"
   x="0px"
   y="0px"
   viewBox="0 0 28.3 28.3"
   style="enable-background:new 0 0 28.3 28.3;"
   xml:space="preserve"
   sodipodi:docname="User.svg"
   inkscape:version="0.92.2 (5c3e80d, 2017-08-06)"><metadata
     id="metadata3727"><rdf:RDF><cc:Work
         rdf:about=""><dc:format>image/svg+xml</dc:format><dc:type
           rdf:resource="http://purl.org/dc/dcmitype/StillImage" /><dc:title></dc:title></cc:Work></rdf:RDF></metadata><defs
     id="defs3725" /><sodipodi:namedview
     pagecolor="#ffffff"
     bordercolor="#666666"
     borderopacity="1"
     objecttolerance="10"
     gridtolerance="10"
     guidetolerance="10"
     inkscape:pageopacity="0"
     inkscape:pageshadow="2"
     inkscape:window-width="1920"
     inkscape:window-height="1017"
     id="namedview3723"
     showgrid="false"
     inkscape:zoom="29.964665"
     inkscape:cx="8.4766507"
     inkscape:cy="16.605137"
     inkscape:window-x="-8"
     inkscape:window-y="-8"
     inkscape:window-maximized="1"
     inkscape:current-layer="Ebene_1" /><style
     type="text/css"
     id="style3714">
	.st0{fill:#FFFFFF;}
	.st1{fill:#36A9E1;}
	.st2{fill:#E63326;}
	.st3{fill:#FBBA19;}
	.st4{fill:#83BB26;}
	.st5{fill:#614797;}
</style><polygon
     class="st0"
     points="25,8 14,1.7 3.1,8 3.1,20.7 14.1,27 25,20.6 "
     id="polygon3716" /><polygon
     class="st1"
     points="25,8 14,1.7 3.1,8 3.1,8.1 14.1,14.4 25,8 "
     id="polygon3718" /><path
     d="M25.6,8.2C25.6,8.2,25.6,8.2,25.6,8.2c0-0.2,0-0.3-0.1-0.5l0,0c0,0,0,0,0,0c0,0,0,0,0,0c0,0,0,0,0,0c0,0,0,0,0,0  c0,0,0,0,0,0c0,0,0,0,0,0c0,0,0,0-0.1,0L14.3,1.2c-0.2-0.1-0.4-0.1-0.6,0L2.8,7.5c0,0-0.1,0-0.1,0.1c0,0,0,0,0,0c0,0-0.1,0-0.1,0.1  c0,0,0,0,0,0c0,0,0,0.1-0.1,0.1c0,0,0,0,0,0c0,0,0,0.1,0,0.1c0,0,0,0,0,0c0,0,0,0,0,0c0,0,0,0.1,0,0.1c0,0,0,0,0,0c0,0,0,0,0,0  l0,12.6c0,0.2,0.1,0.4,0.3,0.5l10.9,6.3c0,0,0,0,0.1,0c0,0,0,0,0,0c0,0,0.1,0,0.1,0c0,0,0,0,0,0c0,0,0.1,0,0.1,0s0.1,0,0.1,0  c0,0,0,0,0,0c0,0,0.1,0,0.1,0c0,0,0,0,0,0c0,0,0,0,0.1,0l10.9-6.3c0.2-0.1,0.3-0.3,0.3-0.5L25.6,8.2z M4.3,8L14,2.4L23.8,8l-9.8,5.7  L4.3,8z M3.7,9.1l9.8,5.6v11.2l-9.8-5.6L3.7,9.1z M14.7,25.9V14.7l9.7-5.6l0,11.2L14.7,25.9z"
     id="path3720" /><path
     style="fill:#e9397a;stroke-width:0.03337264;fill-opacity:1"
     d="M 9.1558814,10.840138 C 6.5100688,9.2850859 4.3550305,8.0022957 4.3669076,7.9894926 4.3879737,7.9667838 13.980916,2.4228537 13.999144,2.4228537 c 0.01787,0 9.71244,5.5444511 9.734026,5.5670157 0.02144,0.022412 -9.638875,5.6557176 -9.723681,5.6702566 -0.02367,0.0041 -2.207795,-1.264937 -4.8536076,-2.819988 z"
     id="path3729"
     inkscape:connector-curvature="0" /></svg>